<svg width="762" height="229" viewBox="0 0 762 229" fill="none" xmlns="http://www.w3.org/2000/svg">
<rect x="0.951172" y="104.798" width="750" height="125" transform="rotate(-8 0.951172 104.798)" fill="#F199C5"/>
<path d="M89.3846 163.809L111.677 160.676L106.505 169.74L90.5336 171.985C79.506 173.534 70.3958 167.689 69.0999 158.468C67.7905 149.152 75.0368 141.735 86.0645 140.185L108.357 137.052L103.198 146.211L87.2268 148.456C81.9031 149.204 78.358 152.95 78.9993 157.513C79.6339 162.029 84.0134 164.564 89.3846 163.809ZM133.945 132.923C149.393 130.752 157.896 134.695 159.493 146.055C161.089 157.415 154.009 163.597 138.561 165.768C123.065 167.946 114.602 163.949 113.006 152.588C111.409 141.228 118.449 135.101 133.945 132.923ZM137.398 157.497C147.285 156.108 150.663 154.276 149.701 147.431C148.739 140.586 144.994 139.804 135.107 141.193C125.22 142.583 121.836 144.367 122.797 151.212C123.759 158.057 127.511 158.887 137.398 157.497ZM199 157.274C197.764 157.447 196.536 157.329 194.814 156.117L172.867 141.364L175.493 160.044L166.556 161.3L162.849 134.919C162.254 130.689 164.581 128.617 167.385 128.223C168.573 128.056 169.802 128.174 171.571 129.38L193.518 144.133L190.892 125.452L199.876 124.19L203.577 150.523C204.171 154.754 201.852 156.873 199 157.274ZM209.053 122.9L245.178 117.823L239.971 126.989L228.61 128.586L231.917 152.114L222.078 153.497L218.771 129.968L203.846 132.066L209.053 122.9ZM293.026 143.526L256.046 148.723L260.838 139.713L268.824 138.59C270.725 138.323 272.959 138.009 274.494 137.89C273.478 136.87 271.873 135.108 270.613 133.734L263.727 126.122L251.768 149.325L240.122 150.961L256.472 119.338C257.543 117.297 259.251 115.312 262.341 114.878C265.288 114.464 267.457 115.758 269.116 117.561L293.026 143.526ZM308.667 132.991L330.96 129.858L325.787 138.922L309.816 141.166C298.788 142.716 289.678 136.871 288.382 127.65C287.073 118.333 294.319 110.917 305.347 109.367L327.64 106.234L322.48 115.393L306.509 117.638C301.186 118.386 297.64 122.132 298.282 126.695C298.916 131.21 303.296 133.746 308.667 132.991ZM334.43 105.28L370.555 100.203L365.348 109.368L353.988 110.965L357.294 134.494L347.455 135.877L344.148 112.348L329.223 114.445L334.43 105.28ZM386.735 122.019L413.782 118.218L408.609 127.282L377.998 131.584L373.528 99.7846L410.366 94.6074L405.159 103.773L384.578 106.666L385.112 110.468L410.304 106.928L405.663 114.948L386.127 117.693L386.735 122.019ZM456.497 112.215L451.705 121.225L421.569 125.461C419.097 125.808 416.805 124.676 416.445 122.109C416.237 120.636 416.845 119.096 418.029 117.863L428.344 107.107C433.026 102.135 435.087 100.246 436.155 99.2232C434.464 99.6063 431.571 100.061 425.249 100.95L412.511 102.74L417.623 93.5876L446.95 89.4659C449.422 89.1185 451.714 90.2505 452.075 92.8173C452.275 94.2433 451.674 95.8304 450.483 97.0156L440.052 107.982C435.405 112.852 433.445 114.776 432.33 115.805C433.885 115.489 439.956 114.539 444.947 113.838L456.497 112.215ZM458.593 100.723L474.469 98.4918L470.53 105.298L454.654 107.529L458.593 100.723ZM513.116 113.128C511.88 113.301 510.652 113.183 508.93 111.971L486.983 97.2178L489.609 115.898L480.673 117.154L476.965 90.7733C476.37 86.5429 478.697 84.471 481.501 84.0769C482.69 83.9099 483.918 84.028 485.687 85.2336L507.634 99.9868L505.008 81.3063L513.992 80.0438L517.693 106.377C518.288 110.607 515.968 112.727 513.116 113.128ZM541.966 75.5791C557.414 73.408 565.918 77.3509 567.514 88.7113C569.111 100.072 562.03 106.253 546.582 108.424C531.086 110.602 522.624 106.605 521.027 95.2446C519.431 83.8843 526.47 77.7569 541.966 75.5791ZM545.42 100.154C555.307 98.7641 558.684 96.9321 557.722 90.0874C556.761 83.2427 553.015 82.4603 543.128 83.8498C533.241 85.2393 529.857 87.0237 530.819 93.8685C531.781 100.713 535.533 101.543 545.42 100.154ZM611.557 66.3318L614.076 84.2517C615.425 93.8534 609.493 99.5828 596.279 101.44C580.973 103.591 573.691 99.7187 572.342 90.117L569.824 72.1972L579.615 70.821L582.134 88.7409C582.795 93.4467 585.005 94.6871 595.13 93.2642C602.687 92.2021 604.817 90.1093 604.189 85.6412L601.671 67.7214L611.557 66.3318ZM631.086 76.5292L648.388 74.0975C656.136 73.0087 660.727 75.3203 661.542 81.1193C662.457 87.6313 659.059 92.0835 649.363 93.4462L619.75 97.6081L624.923 88.5439L648.974 85.1637C651.303 84.8364 652.255 84.0239 652.022 82.3603C651.795 80.7442 650.655 80.2257 648.326 80.553L631.024 82.9847C622.849 84.1337 618.579 81.0014 617.811 75.5351C616.969 69.546 620.414 65.0871 630.063 63.731L657.68 59.8498L652.52 69.009L630.465 72.1086C628.184 72.4293 627.17 73.1533 627.398 74.7694C627.625 76.3856 628.805 76.8498 631.086 76.5292ZM680.909 56.5851L690.749 55.2022L692.238 65.8021L692.461 75.3197L684.761 76.4019L682.399 67.1849L680.909 56.5851ZM684.478 84.391C684.064 81.444 686.2 79.3988 689.194 78.9779C692.141 78.5637 694.759 79.9409 695.173 82.888C695.58 85.7875 693.437 87.7851 690.49 88.1993C687.496 88.6202 684.885 87.2905 684.478 84.391Z" fill="#141313"/>
</svg>
