<svg width="181" height="180" viewBox="0 0 181 180" fill="none" xmlns="http://www.w3.org/2000/svg">
<path d="M40.4412 153.152C43.261 148.06 49.8854 146.688 55.9739 150.06L67.731 156.572L61.6698 167.516L56.2112 164.492L59.7723 158.062L53.4738 154.574C50.4558 152.902 47.3473 153.376 45.9519 155.895C44.5856 158.362 45.8397 161.423 48.7789 163.051L60.5361 169.563L54.5428 172.21L46.2498 167.617C40.1088 164.216 37.6359 158.217 40.4412 153.152Z" fill="#F199C5"/>
<path d="M35.4886 140.186L24.8576 126.831L31.3797 126.739L43.4119 141.855L27.7093 154.354L13.2295 136.163L19.8172 136.058L27.9072 146.221L29.7849 144.726L19.8826 132.286L25.6737 132.24L33.3526 141.886L35.4886 140.186ZM13.1782 145.637L15.8306 143.526L22.3137 149.792L20.3655 151.342L13.1782 145.637Z" fill="#F199C5"/>
<path d="M19.5543 111.436L15.6714 97.9127L21.7322 100.324L24.5139 110.012C26.4347 116.702 23.6117 122.85 18.0177 124.456C12.366 126.079 7.14408 122.241 5.22333 115.551L1.34044 102.027L7.45885 104.422L10.2406 114.11C11.1679 117.34 13.7953 119.207 16.5634 118.413C19.3028 117.626 20.4899 114.695 19.5543 111.436Z" fill="#F199C5"/>
<path d="M1.87822 80.4935C2.97861 70.8058 6.69356 66.2761 13.8177 67.0853C20.9419 67.8945 23.5762 73.1454 22.4758 82.8331C21.372 92.5506 17.6306 97.0471 10.5064 96.2379C3.38225 95.4287 0.774453 90.211 1.87822 80.4935ZM17.2891 82.244C17.9934 76.0438 17.4127 73.7134 13.1203 73.2258C8.82788 72.7383 7.76912 74.8825 7.06487 81.0826C6.36062 87.2828 6.91152 89.6098 11.2039 90.0974C15.4963 90.5849 16.5849 88.4441 17.2891 82.244Z" fill="#F199C5"/>
<path d="M19.1389 36.0079L29.0328 41.4877C34.334 44.4238 34.9642 49.5397 30.9234 56.8355C26.2431 65.2859 21.5721 67.4657 16.2709 64.5296L6.37703 59.0498L9.37128 53.6436L19.2651 59.1234C21.8632 60.5624 23.3135 59.9253 26.4095 54.3354C28.7206 50.1627 28.4764 48.3127 26.0095 46.9464L16.1156 41.4666L19.1389 36.0079Z" fill="#F199C5"/>
<path d="M22.3668 31.2355L28.3286 26.4898L43.6891 31.2876L42.7638 14.9994L48.4909 10.4407L49.7485 32.6376C49.7965 34.0949 49.5068 35.7059 48.0046 36.9016C46.5493 38.06 44.9704 38.0515 43.505 37.6075L22.3668 31.2355Z" fill="#F199C5"/>
<path d="M81.639 17.5027L86.262 20.233L78.2747 22.5263L72.5129 18.6561L63.3433 21.2888L64.8087 26.3926L58.8399 28.1064L56.0084 18.2448L72.7904 13.4264C74.6359 12.8965 75.8375 11.6463 75.4567 10.3199C75.0262 8.82051 73.571 8.4268 71.5237 9.01461L54.7417 13.833L57.1939 7.69808L69.593 4.13807C73.9759 2.87965 79.9096 2.67414 81.4909 8.18163C82.3519 11.1805 81.1896 14.1984 78.1999 15.7435C79.0039 16.0433 79.9235 16.5283 81.639 17.5027Z" fill="#F199C5"/>
<path d="M94.2543 16.5984L111.215 18.5249L106.668 23.2016L87.4718 21.0212L89.7369 1.07942L112.838 3.70342L108.255 8.43637L95.3479 6.97032L95.0771 9.35499L110.875 11.1495L106.814 15.2774L94.5624 13.8859L94.2543 16.5984Z" fill="#F199C5"/>
<path d="M138.177 32.4872L132.396 35.1842L115.758 25.9689C114.393 25.2131 113.674 23.7862 114.459 22.3691C114.91 21.5555 115.792 21.0153 116.847 20.8449L126.041 19.3527C130.247 18.6305 131.987 18.4621 132.905 18.3531C131.916 17.9086 130.301 17.0482 126.81 15.115L119.777 11.2196L125.77 8.57182L141.963 17.54C143.327 18.2959 144.046 19.7227 143.261 21.1399C142.825 21.9272 141.928 22.4937 140.888 22.6378L131.557 24.1913C127.406 24.8757 125.704 25.0993 124.76 25.1938C125.656 25.621 129.044 27.429 131.799 28.9552L138.177 32.4872Z" fill="#F199C5"/>
<path d="M151.557 37.4901L157.798 45.3296L152.883 45.3692L146.642 37.5296L151.557 37.4901Z" fill="#F199C5"/>
<path d="M158.591 79.8669C158.375 79.1172 158.341 78.3466 158.941 77.1755L166.158 62.3065L154.826 65.5602L153.27 60.1392L169.273 55.5443C171.839 54.8075 173.324 56.0665 173.813 57.7678C174.02 58.4886 174.054 59.2592 173.462 60.4591L166.245 75.3282L177.577 72.0745L179.142 77.5243L163.168 82.1109C160.601 82.8478 159.087 81.597 158.591 79.8669Z" fill="#F199C5"/>
<path d="M179.056 100.633C177.956 110.32 174.241 114.85 167.117 114.041C159.993 113.232 157.358 107.981 158.459 98.2932C159.563 88.5757 163.304 84.0792 170.428 84.8884C177.552 85.6976 180.16 90.9152 179.056 100.633ZM163.646 98.8823C162.941 105.082 163.522 107.413 167.814 107.9C172.107 108.388 173.166 106.244 173.87 100.044C174.574 93.8435 174.023 91.5165 169.731 91.0289C165.438 90.5414 164.35 92.6822 163.646 98.8823Z" fill="#F199C5"/>
<path d="M161.796 145.118L151.902 139.639C146.601 136.702 145.97 131.587 150.011 124.291C154.692 115.84 159.363 113.661 164.664 116.597L174.558 122.076L171.563 127.483L161.67 122.003C159.071 120.564 157.621 121.201 154.525 126.791C152.214 130.964 152.458 132.814 154.925 134.18L164.819 139.66L161.796 145.118Z" fill="#F199C5"/>
<path d="M144.333 150.984L135.789 157.785C131.963 160.83 128.758 161.043 126.479 158.179C123.919 154.963 124.335 151.488 129.123 147.677L143.746 136.037L143.838 142.559L131.961 152.013C130.811 152.928 130.556 153.668 131.21 154.489C131.846 155.287 132.624 155.205 133.774 154.289L142.317 147.489C146.355 144.275 149.647 144.606 151.796 147.306C154.15 150.263 153.711 153.757 148.946 157.55L135.309 168.405L135.18 161.836L146.07 153.167C147.197 152.27 147.513 151.559 146.878 150.761C146.242 149.963 145.46 150.087 144.333 150.984Z" fill="#F199C5"/>
<path d="M83.5301 179.176L77.3598 178.475L78.1148 171.828L79.4674 166.033L84.2964 166.582L84.2851 172.529L83.5301 179.176ZM85.7161 161.792C85.5061 163.64 83.8938 164.543 82.0159 164.33C80.1678 164.12 78.7993 162.878 79.0092 161.03C79.2157 159.211 80.8246 158.337 82.6728 158.547C84.5507 158.761 85.9226 159.973 85.7161 161.792Z" fill="#F199C5"/>
<circle cx="90.8147" cy="89.9359" r="52.2766" transform="rotate(28.9802 90.8147 89.9359)" stroke="#F1F2EE" stroke-width="3"/>
</svg>
